<?xml version="1.0" encoding="UTF-8" standalone="no"?>
<svg
   xmlns:dc="http://purl.org/dc/elements/1.1/"
   xmlns:cc="http://creativecommons.org/ns#"
   xmlns:rdf="http://www.w3.org/1999/02/22-rdf-syntax-ns#"
   xmlns:svg="http://www.w3.org/2000/svg"
   xmlns="http://www.w3.org/2000/svg"
   xmlns:sodipodi="http://sodipodi.sourceforge.net/DTD/sodipodi-0.dtd"
   xmlns:inkscape="http://www.inkscape.org/namespaces/inkscape"
   width="512"
   height="512"
   viewBox="0 0 135.46666 135.46667"
   version="1.1"
   id="svg8"
   inkscape:version="1.0.1 (3bc2e813f5, 2020-09-07)"
   sodipodi:docname="connected_fleet.svg">
  <defs
     id="defs2" />
  <sodipodi:namedview
     id="base"
     pagecolor="#ffffff"
     bordercolor="#666666"
     borderopacity="1.0"
     inkscape:pageopacity="0.0"
     inkscape:pageshadow="2"
     inkscape:zoom="0.45611674"
     inkscape:cx="362.86787"
     inkscape:cy="516.11578"
     inkscape:document-units="mm"
     inkscape:current-layer="g877"
     inkscape:document-rotation="0"
     showgrid="false"
     units="px"
     inkscape:snap-nodes="false"
     inkscape:window-width="1366"
     inkscape:window-height="713"
     inkscape:window-x="0"
     inkscape:window-y="0"
     inkscape:window-maximized="1" />
  <metadata
     id="metadata5">
    <rdf:RDF>
      <cc:Work
         rdf:about="">
        <dc:format>image/svg+xml</dc:format>
        <dc:type
           rdf:resource="http://purl.org/dc/dcmitype/StillImage" />
        <dc:title></dc:title>
      </cc:Work>
    </rdf:RDF>
  </metadata>
  <g
     inkscape:label="Layer 1"
     inkscape:groupmode="layer"
     id="layer1">
    <g
       id="g847"
       transform="matrix(0.26458333,0,0,0.29063934,86.157029,202.19047)"
       style="fill:#ee9e3d;fill-opacity:1">
      <path
         d="M 0,0 H 24 V 24 H 0 Z"
         fill="none"
         id="path833"
         style="fill:#ee9e3d;fill-opacity:1" />
      <path
         d="m 138.87067,-598.67404 h -406.14031 c -24.81968,0 -45.1267,18.65947 -45.1267,41.46549 v 248.79291 c 0,22.80601 20.30702,41.46548 45.1267,41.46548 h 112.81675 v 41.46549 H 26.053915 v -41.46549 H 138.87067 c 24.81968,0 44.90106,-18.65947 44.90106,-41.46548 l 0.22564,-248.79291 c 0,-22.80602 -20.30702,-41.46549 -45.1267,-41.46549 z m 0,290.2584 h -406.14031 v -248.79291 h 406.14031 z"
         id="path835"
         style="fill:#ee9e3d;fill-opacity:1;stroke-width:21.6287" />
    </g>
    <g
       id="g871"
       transform="matrix(1.3236223,0,0,1.2588547,16.060483,40.8067)">
      <path
         d="M 0,0 H 24 V 24 H 0 Z"
         fill="none"
         id="path857" />
      <path
         d="m 4,16 c 0,0.88 0.39,1.67 1,2.22 V 20 c 0,0.55 0.45,1 1,1 h 1 c 0.55,0 1,-0.45 1,-1 v -1 h 8 v 1 c 0,0.55 0.45,1 1,1 h 1 c 0.55,0 1,-0.45 1,-1 V 18.22 C 19.61,17.67 20,16.88 20,16 V 6 C 20,2.5 16.42,2 12,2 7.58,2 4,2.5 4,6 Z m 3.5,1 C 6.67,17 6,16.33 6,15.5 6,14.67 6.67,14 7.5,14 8.33,14 9,14.67 9,15.5 9,16.33 8.33,17 7.5,17 Z m 9,0 C 15.67,17 15,16.33 15,15.5 15,14.67 15.67,14 16.5,14 17.33,14 18,14.67 18,15.5 18,16.33 17.33,17 16.5,17 Z M 18,11 H 6 V 6 h 12 z"
         id="path859"
         style="fill:#ee9e3d;fill-opacity:1" />
    </g>
    <g
       id="g877"
       transform="matrix(1.3236223,0,0,1.2588547,45.109707,41.307471)">
      <path
         d="M 0,0 H 24 V 24 H 0 Z"
         fill="none"
         id="path873" />
      <path
         d="m -18.592155,43.304099 c 0,0.88 0.39,1.67 1,2.22 v 1.78 c 0,0.55 0.45,1 1,1 h 1 c 0.55,0 1,-0.45 1,-1 v -1 h 8.0000004 v 1 c 0,0.55 0.45,1 1,1 h 1 c 0.55,0 1,-0.45 1,-1 v -1.78 c 0.61,-0.55 1,-1.34 1,-2.22 v -10 c 0,-3.5 -3.58,-4 -8.0000004,-4 -4.42,0 -8,0.5 -8,4 z m 3.5,1 c -0.83,0 -1.5,-0.67 -1.5,-1.5 0,-0.83 0.67,-1.5 1.5,-1.5 0.83,0 1.5,0.67 1.5,1.5 0,0.83 -0.67,1.5 -1.5,1.5 z m 9.0000004,0 c -0.83,0 -1.5,-0.67 -1.5,-1.5 0,-0.83 0.67,-1.5 1.5,-1.5 0.83,0 1.5,0.67 1.5,1.5 0,0.83 -0.67,1.5 -1.5,1.5 z m 1.5,-6 H -16.592155 v -5 h 12.0000004 z"
         id="path875"
         style="fill:#ee9e3d;fill-opacity:1" />
      <g
         id="g893"
         transform="matrix(2.0468367,0,0,1.8751717,5.1580015,5.2253827)"
         style="stroke:#ee9e3d;stroke-opacity:1">
        <path
           d="M 0,0 H 24 V 24 H 0 Z"
           fill="none"
           id="path879"
           style="stroke:#ee9e3d;stroke-opacity:1" />
        <path
           d="m 19,15 v 2 H 5 V 15 H 19 M 21,5 H 3 v 2 h 18 z m 0,4 H 3 v 2 h 18 z m 0,4 H 3 v 6 h 18 z"
           id="path881"
           style="stroke:#ee9e3d;stroke-opacity:1" />
      </g>
    </g>
  </g>
</svg>
