<?xml version="1.0" encoding="UTF-8" standalone="no"?>
<svg
   xmlns:dc="http://purl.org/dc/elements/1.1/"
   xmlns:cc="http://creativecommons.org/ns#"
   xmlns:rdf="http://www.w3.org/1999/02/22-rdf-syntax-ns#"
   xmlns:svg="http://www.w3.org/2000/svg"
   xmlns="http://www.w3.org/2000/svg"
   xmlns:sodipodi="http://sodipodi.sourceforge.net/DTD/sodipodi-0.dtd"
   xmlns:inkscape="http://www.inkscape.org/namespaces/inkscape"
   width="512"
   height="512"
   viewBox="0 0 135.46666 135.46667"
   version="1.1"
   id="svg8"
   inkscape:version="1.0.1 (3bc2e813f5, 2020-09-07)"
   sodipodi:docname="connected_commute.svg">
  <defs
     id="defs2" />
  <sodipodi:namedview
     id="base"
     pagecolor="#ffffff"
     bordercolor="#666666"
     borderopacity="1.0"
     inkscape:pageopacity="0.0"
     inkscape:pageshadow="2"
     inkscape:zoom="0.35"
     inkscape:cx="394.28571"
     inkscape:cy="560"
     inkscape:document-units="mm"
     inkscape:current-layer="g869"
     inkscape:document-rotation="0"
     showgrid="false"
     units="px"
     inkscape:window-width="1366"
     inkscape:window-height="713"
     inkscape:window-x="0"
     inkscape:window-y="0"
     inkscape:window-maximized="1"
     inkscape:snap-global="false" />
  <metadata
     id="metadata5">
    <rdf:RDF>
      <cc:Work
         rdf:about="">
        <dc:format>image/svg+xml</dc:format>
        <dc:type
           rdf:resource="http://purl.org/dc/dcmitype/StillImage" />
        <dc:title></dc:title>
      </cc:Work>
    </rdf:RDF>
  </metadata>
  <g
     inkscape:label="Layer 1"
     inkscape:groupmode="layer"
     id="layer1">
    <g
       id="g888"
       transform="matrix(5.6546813,0,0,5.7842697,1.5083609,-0.68635032)">
      <g
         id="g861">
        <rect
           fill="none"
           height="24"
           width="24"
           id="rect859"
           x="0"
           y="0" />
      </g>
      <g
         id="g871">
        <g
           id="g869">
          <path
             d="m 21,8 c -1.45,0 -2.26,1.44 -1.93,2.51 l -3.55,3.56 c -0.3,-0.09 -0.74,-0.09 -1.04,0 L 11.93,11.52 C 12.27,10.45 11.46,9 10,9 8.55,9 7.73,10.44 8.07,11.52 L 3.51,16.07 C 2.44,15.74 1,16.55 1,18 c 0,1.1 0.9,2 2,2 1.45,0 2.26,-1.44 1.93,-2.51 l 4.55,-4.56 c 0.3,0.09 0.74,0.09 1.04,0 l 2.55,2.55 C 12.73,16.55 13.54,18 15,18 c 1.45,0 2.27,-1.44 1.93,-2.52 l 3.56,-3.55 C 21.56,12.26 23,11.45 23,10 23,8.9 22.1,8 21,8 Z"
             id="path863"
             style="fill:#ee9e3d;fill-opacity:1" />
          <g
             id="g904"
             transform="matrix(0.29866673,0,0,0.31024988,17.415999,1.1745026)">
            <path
               d="M 0,0 H 24 V 24 H 0 Z"
               fill="none"
               id="path890" />
            <path
               d="m 12,2 c 3.86,0 7,3.14 7,7 0,5.25 -7,13 -7,13 C 12,22 5,14.25 5,9 5,5.14 8.14,2 12,2 Z M 10.47,14 17,7.41 15.6,6 10.47,11.18 8.4,9.09 7,10.5 Z"
               id="path892"
               style="fill:#ee9e3d;fill-opacity:1" />
          </g>
          <g
             id="g984"
             transform="matrix(0.04679014,0,0,0.04574187,10.535093,11.331952)">
            <path
               d="M 0,0 H 24 V 24 H 0 Z"
               fill="none"
               id="path970" />
            <path
               d="m -168.61642,101.87029 c 0,17.79812 9.44576,33.77599 24.2199,44.89981 v 36.00075 c 0,11.12383 10.89896,20.22514 24.21991,20.22514 h 24.219908 c 13.32095,0 24.21991,-9.10131 24.21991,-20.22514 V 162.54571 H 122.02249 v 20.22514 c 0,11.12383 10.89897,20.22514 24.21992,20.22514 h 24.2199 c 13.32096,0 24.21992,-9.10131 24.21992,-20.22514 V 146.7701 c 14.77414,-11.12382 24.2199,-27.10169 24.2199,-44.89981 v -202.25144 c 0,-70.78798 -86.70728,-80.90056 -193.759285,-80.90056 -107.051997,0 -193.759265,10.11258 -193.759265,80.90056 z m 84.769678,20.22514 c -20.102528,0 -36.329868,-13.55085 -36.329868,-30.337724 0,-16.786864 16.22734,-30.337714 36.329868,-30.337714 20.10252,0 36.329859,13.55085 36.329859,30.337714 0,16.786874 -16.227339,30.337724 -36.329859,30.337724 z m 217.979192,0 c -20.10252,0 -36.329875,-13.55085 -36.329875,-30.337724 0,-16.786864 16.227355,-30.337714 36.329875,-30.337714 20.10252,0 36.32986,13.55085 36.32986,30.337714 0,16.786874 -16.22734,30.337724 -36.32986,30.337724 z M 170.46231,0.74456419 H -120.17661 V -100.38115 h 290.63892 z"
               id="path972"
               style="fill:#ee9e3d;fill-opacity:0.333333;stroke-width:22.1325" />
          </g>
        </g>
      </g>
    </g>
  </g>
</svg>
